<svg xmlns="http://www.w3.org/2000/svg" xmlns:xlink="http://www.w3.org/1999/xlink" preserveAspectRatio="xMidYMid" width="479" height="189" viewBox="0 0 479 189">
  <defs>
    <style>

      .cls-3 {
        fill: #ffffff;
      }

      .cls-4 {
        fill: #ffffff;
      }
    </style>
  </defs>
  <g id="group-1">
    <path d="M328.815,67.593 C327.210,69.096 324.233,69.846 319.884,69.846 C315.483,69.846 312.518,69.121 310.992,67.670 C309.464,66.221 308.700,63.605 308.700,59.823 C308.700,55.888 309.489,53.155 311.069,51.627 C312.648,50.100 315.638,49.335 320.039,49.335 C324.389,49.335 327.340,50.073 328.893,51.549 C330.446,53.025 331.223,55.655 331.223,59.435 C331.223,63.372 330.420,66.091 328.815,67.593 ZM297.517,96.728 C297.309,97.402 297.037,97.868 296.701,98.126 C296.364,98.386 295.937,98.515 295.420,98.515 C295.005,98.515 294.539,98.425 294.022,98.243 C293.504,98.062 292.921,97.868 292.274,97.660 C291.626,97.454 290.915,97.260 290.139,97.077 C289.362,96.897 288.508,96.806 287.576,96.806 C286.488,96.806 285.401,97.026 284.314,97.466 C283.227,97.907 282.100,98.592 280.935,99.525 C279.770,100.457 278.553,101.700 277.285,103.254 C276.016,104.808 274.657,106.725 273.208,109.003 C273.208,109.003 273.208,152.201 273.208,152.201 C273.208,152.719 273.053,153.172 272.742,153.561 C272.431,153.949 271.900,154.273 271.150,154.532 C270.399,154.792 269.402,154.985 268.160,155.115 C266.917,155.243 265.337,155.309 263.422,155.309 C261.506,155.309 259.927,155.243 258.685,155.115 C257.442,154.985 256.445,154.792 255.695,154.532 C254.943,154.273 254.413,153.949 254.102,153.561 C253.792,153.172 253.636,152.719 253.636,152.201 C253.636,152.201 253.636,82.898 253.636,82.898 C253.636,82.381 253.765,81.927 254.025,81.539 C254.283,81.150 254.749,80.827 255.423,80.568 C256.095,80.309 256.963,80.115 258.024,79.985 C259.085,79.856 260.419,79.791 262.024,79.791 C263.681,79.791 265.053,79.856 266.140,79.985 C267.228,80.115 268.069,80.309 268.664,80.568 C269.259,80.827 269.686,81.150 269.946,81.539 C270.204,81.927 270.334,82.381 270.334,82.898 C270.334,82.898 270.334,91.522 270.334,91.522 C272.146,88.933 273.855,86.796 275.460,85.113 C277.064,83.430 278.592,82.096 280.042,81.111 C281.491,80.128 282.941,79.441 284.392,79.053 C285.840,78.664 287.291,78.470 288.741,78.470 C289.413,78.470 290.139,78.509 290.915,78.586 C291.692,78.664 292.494,78.794 293.323,78.975 C294.151,79.157 294.876,79.363 295.498,79.596 C296.119,79.829 296.571,80.076 296.857,80.334 C297.141,80.594 297.348,80.878 297.478,81.189 C297.607,81.500 297.723,81.927 297.827,82.471 C297.931,83.015 298.008,83.831 298.060,84.918 C298.111,86.006 298.138,87.482 298.138,89.347 C298.138,91.212 298.086,92.740 297.983,93.931 C297.878,95.123 297.723,96.055 297.517,96.728 ZM241.948,84.957 C241.870,85.398 241.766,85.903 241.637,86.472 C241.507,87.043 241.339,87.690 241.133,88.415 C241.133,88.415 220.318,151.113 220.318,151.113 C220.059,151.995 219.709,152.706 219.270,153.250 C218.830,153.794 218.105,154.221 217.095,154.532 C216.086,154.843 214.713,155.049 212.979,155.153 C211.244,155.257 208.979,155.309 206.184,155.309 C203.439,155.309 201.200,155.243 199.466,155.115 C197.730,154.985 196.371,154.765 195.388,154.454 C194.404,154.143 193.692,153.716 193.252,153.172 C192.812,152.628 192.462,151.942 192.204,151.113 C192.204,151.113 171.390,88.415 171.390,88.415 C171.079,87.379 170.833,86.447 170.652,85.618 C170.470,84.790 170.367,84.194 170.342,83.831 C170.315,83.469 170.303,83.131 170.303,82.821 C170.303,82.304 170.445,81.850 170.730,81.461 C171.014,81.073 171.519,80.750 172.244,80.490 C172.969,80.231 173.965,80.050 175.234,79.946 C176.502,79.843 178.095,79.791 180.011,79.791 C182.133,79.791 183.842,79.856 185.137,79.985 C186.430,80.115 187.453,80.296 188.204,80.529 C188.954,80.762 189.486,81.099 189.796,81.539 C190.107,81.979 190.366,82.510 190.573,83.131 C190.573,83.131 206.339,134.021 206.339,134.021 C206.339,134.021 206.805,135.963 206.805,135.963 C206.805,135.963 207.271,134.021 207.271,134.021 C207.271,134.021 222.804,83.131 222.804,83.131 C222.959,82.510 223.204,81.979 223.542,81.539 C223.878,81.099 224.408,80.762 225.134,80.529 C225.858,80.296 226.829,80.115 228.046,79.985 C229.262,79.856 230.854,79.791 232.822,79.791 C234.737,79.791 236.304,79.843 237.521,79.946 C238.737,80.050 239.682,80.231 240.356,80.490 C241.028,80.750 241.494,81.073 241.754,81.461 C242.012,81.850 242.142,82.304 242.142,82.821 C242.142,83.080 242.129,83.391 242.103,83.753 C242.077,84.116 242.026,84.518 241.948,84.957 ZM157.100,122.522 C157.100,122.522 114.928,122.522 114.928,122.522 C114.928,125.474 115.278,128.155 115.977,130.563 C116.675,132.972 117.788,135.019 119.316,136.701 C120.843,138.385 122.811,139.667 125.219,140.547 C127.626,141.428 130.512,141.868 133.878,141.868 C137.295,141.868 140.298,141.623 142.887,141.130 C145.476,140.638 147.715,140.094 149.605,139.498 C151.495,138.903 153.061,138.359 154.304,137.867 C155.546,137.375 156.556,137.128 157.333,137.128 C157.799,137.128 158.187,137.220 158.498,137.400 C158.808,137.582 159.067,137.905 159.274,138.372 C159.481,138.838 159.624,139.498 159.702,140.353 C159.779,141.207 159.818,142.283 159.818,143.577 C159.818,144.717 159.791,145.688 159.740,146.491 C159.688,147.294 159.610,147.980 159.507,148.549 C159.403,149.120 159.248,149.598 159.041,149.987 C158.834,150.375 158.562,150.752 158.226,151.113 C157.889,151.476 156.970,151.968 155.469,152.589 C153.966,153.211 152.052,153.820 149.722,154.415 C147.392,155.010 144.724,155.528 141.722,155.969 C138.719,156.409 135.509,156.630 132.092,156.630 C125.930,156.630 120.532,155.853 115.899,154.299 C111.264,152.745 107.395,150.389 104.288,147.229 C101.181,144.070 98.864,140.081 97.337,135.264 C95.809,130.447 95.046,124.802 95.046,118.327 C95.046,112.163 95.848,106.608 97.454,101.661 C99.058,96.716 101.388,92.520 104.443,89.075 C107.498,85.631 111.212,83.003 115.588,81.189 C119.963,79.377 124.895,78.470 130.383,78.470 C136.181,78.470 141.140,79.324 145.256,81.034 C149.372,82.743 152.751,85.113 155.391,88.143 C158.032,91.173 159.973,94.760 161.216,98.903 C162.459,103.048 163.080,107.554 163.080,112.422 C163.080,112.422 163.080,115.530 163.080,115.530 C163.080,117.913 162.548,119.674 161.488,120.813 C160.426,121.953 158.964,122.522 157.100,122.522 ZM140.829,97.000 C138.472,93.867 134.836,92.299 129.917,92.299 C127.432,92.299 125.270,92.765 123.432,93.698 C121.594,94.630 120.066,95.887 118.850,97.466 C117.633,99.046 116.701,100.911 116.054,103.060 C115.406,105.210 115.031,107.502 114.928,109.936 C114.928,109.936 144.130,109.936 144.130,109.936 C144.285,104.446 143.184,100.134 140.829,97.000 ZM69.494,142.800 C64.990,146.945 59.515,149.987 53.068,151.929 C46.622,153.871 38.946,154.843 30.041,154.843 C30.041,154.843 6.043,154.843 6.043,154.843 C4.334,154.843 2.897,154.338 1.732,153.328 C0.567,152.318 -0.015,150.674 -0.015,148.394 C-0.015,148.394 -0.015,60.756 -0.015,60.756 C-0.015,58.477 0.567,56.832 1.732,55.822 C2.897,54.812 4.334,54.307 6.043,54.307 C6.043,54.307 31.827,54.307 31.827,54.307 C40.784,54.307 48.382,55.356 54.622,57.454 C60.860,59.551 66.116,62.659 70.388,66.777 C74.659,70.895 77.908,75.984 80.134,82.044 C82.360,88.104 83.474,95.123 83.474,103.099 C83.474,112.319 82.270,120.205 79.863,126.756 C77.455,133.309 73.999,138.657 69.494,142.800 ZM60.680,90.512 C59.566,86.421 57.779,82.873 55.321,79.868 C52.861,76.865 49.702,74.521 45.846,72.837 C41.988,71.155 36.926,70.312 30.662,70.312 C30.662,70.312 20.333,70.312 20.333,70.312 C20.333,70.312 20.333,138.682 20.333,138.682 C20.333,138.682 30.973,138.682 30.973,138.682 C36.565,138.682 41.276,137.958 45.108,136.507 C48.939,135.057 52.136,132.869 54.699,129.942 C57.262,127.016 59.177,123.377 60.447,119.026 C61.715,114.675 62.349,109.599 62.349,103.798 C62.349,99.033 61.792,94.605 60.680,90.512 ZM312.234,80.684 C312.984,80.400 313.982,80.179 315.224,80.024 C316.467,79.868 318.046,79.791 319.962,79.791 C321.877,79.791 323.457,79.868 324.699,80.024 C325.942,80.179 326.938,80.400 327.689,80.684 C328.439,80.969 328.971,81.306 329.281,81.694 C329.592,82.083 329.747,82.537 329.747,83.054 C329.747,83.054 329.747,152.201 329.747,152.201 C329.747,152.719 329.592,153.172 329.281,153.561 C328.971,153.949 328.439,154.273 327.689,154.532 C326.938,154.792 325.942,154.985 324.699,155.115 C323.457,155.243 321.877,155.309 319.962,155.309 C318.046,155.309 316.467,155.243 315.224,155.115 C313.982,154.985 312.984,154.792 312.234,154.532 C311.483,154.273 310.953,153.949 310.642,153.561 C310.331,153.172 310.176,152.719 310.176,152.201 C310.176,152.201 310.176,83.054 310.176,83.054 C310.176,82.537 310.331,82.083 310.642,81.694 C310.953,81.306 311.483,80.969 312.234,80.684 Z" id="path-1" class="cls-3" fill-rule="evenodd"/>
    <path d="M297.594,17.000 C297.594,17.000 337.594,-0.000 337.594,-0.000 C337.594,-0.000 394.594,57.000 394.594,57.000 C394.594,57.000 428.594,19.000 428.594,19.000 C428.594,19.000 457.594,49.000 457.594,49.000 C457.594,49.000 428.594,91.000 428.594,91.000 C428.594,91.000 478.594,141.000 478.594,141.000 C478.594,141.000 457.594,179.000 457.594,179.000 C457.594,179.000 388.594,146.000 388.594,146.000 C388.594,146.000 356.594,189.000 356.594,189.000 C356.594,189.000 298.594,155.000 298.594,155.000 C298.594,155.000 279.594,134.000 279.594,134.000 C279.594,134.000 314.594,147.000 314.594,147.000 C314.594,147.000 367.594,88.000 367.594,88.000 C367.594,88.000 297.594,17.000 297.594,17.000 Z" id="path-2" class="cls-4" fill-rule="evenodd"/>
  </g>
</svg>
