<svg xmlns="http://www.w3.org/2000/svg" preserveAspectRatio="xMidYMid" width="479" height="189"><g fill-rule="evenodd" fill="#fff"><path d="M328.815 67.593c-1.605 1.503-4.582 2.253-8.931 2.253-4.401 0-7.366-.725-8.892-2.176-1.528-1.449-2.292-4.065-2.292-7.847 0-3.935.789-6.668 2.369-8.196 1.579-1.527 4.569-2.292 8.97-2.292 4.35 0 7.301.738 8.854 2.214 1.553 1.476 2.33 4.106 2.33 7.886 0 3.937-.803 6.656-2.408 8.158zm-31.298 29.135c-.208.674-.48 1.14-.816 1.398-.337.26-.764.389-1.281.389-.415 0-.881-.09-1.398-.272a74.245 74.245 0 00-1.748-.583c-.648-.206-1.359-.4-2.135-.583a11.356 11.356 0 00-2.563-.271c-1.088 0-2.175.22-3.262.66-1.087.441-2.214 1.126-3.379 2.059-1.165.932-2.382 2.175-3.65 3.729-1.269 1.554-2.628 3.471-4.077 5.749v43.198c0 .518-.155.971-.466 1.36-.311.388-.842.712-1.592.971-.751.26-1.748.453-2.99.583-1.243.128-2.823.194-4.738.194-1.916 0-3.495-.066-4.737-.194-1.243-.13-2.24-.323-2.99-.583-.752-.259-1.282-.583-1.593-.971a2.119 2.119 0 01-.466-1.36V82.898c0-.517.129-.971.389-1.359.258-.389.724-.712 1.398-.971.672-.259 1.54-.453 2.601-.583 1.061-.129 2.395-.194 4-.194 1.657 0 3.029.065 4.116.194 1.088.13 1.929.324 2.524.583.595.259 1.022.582 1.282.971.258.388.388.842.388 1.359v8.624c1.812-2.589 3.521-4.726 5.126-6.409 1.604-1.683 3.132-3.017 4.582-4.002 1.449-.983 2.899-1.67 4.35-2.058a16.706 16.706 0 014.349-.583c.672 0 1.398.039 2.174.116.777.078 1.579.208 2.408.389a16.11 16.11 0 012.175.621c.621.233 1.073.48 1.359.738.284.26.491.544.621.855.129.311.245.738.349 1.282.104.544.181 1.36.233 2.447a99.4 99.4 0 01.078 4.429c0 1.865-.052 3.393-.155 4.584-.105 1.192-.26 2.124-.466 2.797zm-55.569-11.771c-.078.441-.182.946-.311 1.515a38.34 38.34 0 01-.504 1.943l-20.815 62.698c-.259.882-.609 1.593-1.048 2.137-.44.544-1.165.971-2.175 1.282-1.009.311-2.382.517-4.116.621-1.735.104-4 .156-6.795.156-2.745 0-4.984-.066-6.718-.194-1.736-.13-3.095-.35-4.078-.661-.984-.311-1.696-.738-2.136-1.282-.44-.544-.79-1.23-1.048-2.059L171.39 88.415a38.142 38.142 0 01-.738-2.797c-.182-.828-.285-1.424-.31-1.787a13.62 13.62 0 01-.039-1.01c0-.517.142-.971.427-1.36.284-.388.789-.711 1.514-.971.725-.259 1.721-.44 2.99-.544 1.268-.103 2.861-.155 4.777-.155 2.122 0 3.831.065 5.126.194 1.293.13 2.316.311 3.067.544.75.233 1.282.57 1.592 1.01.311.44.57.971.777 1.592l15.766 50.89.466 1.942.466-1.942 15.533-50.89c.155-.621.4-1.152.738-1.592.336-.44.866-.777 1.592-1.01.724-.233 1.695-.414 2.912-.544 1.216-.129 2.808-.194 4.776-.194 1.915 0 3.482.052 4.699.155 1.216.104 2.161.285 2.835.544.672.26 1.138.583 1.398.971.258.389.388.843.388 1.36 0 .259-.013.57-.039.932a11.71 11.71 0 01-.155 1.204zM157.1 122.522h-42.172c0 2.952.35 5.633 1.049 8.041.698 2.409 1.811 4.456 3.339 6.138 1.527 1.684 3.495 2.966 5.903 3.846 2.407.881 5.293 1.321 8.659 1.321 3.417 0 6.42-.245 9.009-.738 2.589-.492 4.828-1.036 6.718-1.632 1.89-.595 3.456-1.139 4.699-1.631 1.242-.492 2.252-.739 3.029-.739.466 0 .854.092 1.165.272.31.182.569.505.776.972.207.466.35 1.126.428 1.981.077.854.116 1.93.116 3.224 0 1.14-.027 2.111-.078 2.914a18.46 18.46 0 01-.233 2.058c-.104.571-.259 1.049-.466 1.438a5.37 5.37 0 01-.815 1.126c-.337.363-1.256.855-2.757 1.476-1.503.622-3.417 1.231-5.747 1.826s-4.998 1.113-8 1.554c-3.003.44-6.213.661-9.63.661-6.162 0-11.56-.777-16.193-2.331-4.635-1.554-8.504-3.91-11.611-7.07-3.107-3.159-5.424-7.148-6.951-11.965-1.528-4.817-2.291-10.462-2.291-16.937 0-6.164.802-11.719 2.408-16.666 1.604-4.945 3.934-9.141 6.989-12.586 3.055-3.444 6.769-6.072 11.145-7.886 4.375-1.812 9.307-2.719 14.795-2.719 5.798 0 10.757.854 14.873 2.564 4.116 1.709 7.495 4.079 10.135 7.109 2.641 3.03 4.582 6.617 5.825 10.76 1.243 4.145 1.864 8.651 1.864 13.519v3.108c0 2.383-.532 4.144-1.592 5.283-1.062 1.14-2.524 1.709-4.388 1.709zM140.829 97c-2.357-3.133-5.993-4.701-10.912-4.701-2.485 0-4.647.466-6.485 1.399-1.838.932-3.366 2.189-4.582 3.768-1.217 1.58-2.149 3.445-2.796 5.594-.648 2.15-1.023 4.442-1.126 6.876h29.202c.155-5.49-.946-9.802-3.301-12.936zm-71.335 45.8c-4.504 4.145-9.979 7.187-16.426 9.129-6.446 1.942-14.122 2.914-23.027 2.914H6.043c-1.709 0-3.146-.505-4.311-1.515-1.165-1.01-1.747-2.654-1.747-4.934V60.756c0-2.279.582-3.924 1.747-4.934 1.165-1.01 2.602-1.515 4.311-1.515h25.784c8.957 0 16.555 1.049 22.795 3.147 6.238 2.097 11.494 5.205 15.766 9.323 4.271 4.118 7.52 9.207 9.746 15.267 2.226 6.06 3.34 13.079 3.34 21.055 0 9.22-1.204 17.106-3.611 23.657-2.408 6.553-5.864 11.901-10.369 16.044zM60.68 90.512c-1.114-4.091-2.901-7.639-5.359-10.644-2.46-3.003-5.619-5.347-9.475-7.031-3.858-1.682-8.92-2.525-15.184-2.525H20.333v68.37h10.64c5.592 0 10.303-.724 14.135-2.175 3.831-1.45 7.028-3.638 9.591-6.565 2.563-2.926 4.478-6.565 5.748-10.916 1.268-4.351 1.902-9.427 1.902-15.228 0-4.765-.557-9.193-1.669-13.286zm251.554-9.828c.75-.284 1.748-.505 2.99-.66 1.243-.156 2.822-.233 4.738-.233 1.915 0 3.495.077 4.737.233 1.243.155 2.239.376 2.99.66.75.285 1.282.622 1.592 1.01.311.389.466.843.466 1.36v69.147c0 .518-.155.971-.466 1.36-.31.388-.842.712-1.592.971-.751.26-1.747.453-2.99.583-1.242.128-2.822.194-4.737.194-1.916 0-3.495-.066-4.738-.194-1.242-.13-2.24-.323-2.99-.583-.751-.259-1.281-.583-1.592-.971a2.113 2.113 0 01-.466-1.36V83.054c0-.517.155-.971.466-1.36.311-.388.841-.725 1.592-1.01z"/><path d="M297.594 17l40-17 57 57 34-38 29 30-29 42 50 50-21 38-69-33-32 43-58-34-19-21 35 13 53-59-70-71z"/></g></svg>